<svg width="70" height="71" viewBox="0 0 70 71" fill="none" xmlns="http://www.w3.org/2000/svg" preserveAspectRatio="none">
<path d="M10.81 15.5233L0 4.71667L4.71667 0L15.5233 10.81H66.33C66.8496 10.81 67.3619 10.9314 67.8262 11.1646C68.2905 11.3977 68.6939 11.7362 69.0041 12.153C69.3143 12.5698 69.5229 13.0533 69.613 13.565C69.7032 14.0766 69.6724 14.6023 69.5233 15.1L61.5233 41.7667C61.3175 42.4536 60.8957 43.0559 60.3204 43.484C59.7451 43.9122 59.0471 44.1434 58.33 44.1433H17.4767V50.81H54.1433V57.4767H14.1433C13.2593 57.4767 12.4114 57.1255 11.7863 56.5004C11.1612 55.8752 10.81 55.0274 10.81 54.1433V15.5233ZM15.81 70.81C14.4839 70.81 13.2121 70.2832 12.2745 69.3455C11.3368 68.4078 10.81 67.1361 10.81 65.81C10.81 64.4839 11.3368 63.2121 12.2745 62.2745C13.2121 61.3368 14.4839 60.81 15.81 60.81C17.1361 60.81 18.4079 61.3368 19.3455 62.2745C20.2832 63.2121 20.81 64.4839 20.81 65.81C20.81 67.1361 20.2832 68.4078 19.3455 69.3455C18.4079 70.2832 17.1361 70.81 15.81 70.81ZM55.81 70.81C54.4839 70.81 53.2121 70.2832 52.2745 69.3455C51.3368 68.4078 50.81 67.1361 50.81 65.81C50.81 64.4839 51.3368 63.2121 52.2745 62.2745C53.2121 61.3368 54.4839 60.81 55.81 60.81C57.1361 60.81 58.4078 61.3368 59.3455 62.2745C60.2832 63.2121 60.81 64.4839 60.81 65.81C60.81 67.1361 60.2832 68.4078 59.3455 69.3455C58.4078 70.2832 57.1361 70.81 55.81 70.81Z" fill="#FF7F50"/>
</svg>
